<?xml version="1.0" encoding="UTF-8" standalone="no"?>
<!-- Created with Inkscape (http://www.inkscape.org/) -->

<svg
   xmlns:dc="http://purl.org/dc/elements/1.1/"
   xmlns:cc="http://creativecommons.org/ns#"
   xmlns:rdf="http://www.w3.org/1999/02/22-rdf-syntax-ns#"
   xmlns:svg="http://www.w3.org/2000/svg"
   xmlns="http://www.w3.org/2000/svg"
   version="1.0"
   width="95"
   height="95"
   id="svg2211">
  <metadata
     id="metadata2216">
    <rdf:RDF>
      <cc:Work
         rdf:about="">
        <dc:format>image/svg+xml</dc:format>
        <dc:type
           rdf:resource="http://purl.org/dc/dcmitype/StillImage" />
        <cc:license
           rdf:resource="http://web.resource.org/cc/PublicDomain" />
        <dc:title></dc:title>
        <dc:date>10/30/2007</dc:date>
        <dc:creator>
          <cc:Agent>
            <dc:title>Omar Santos</dc:title>
          </cc:Agent>
        </dc:creator>
        <dc:rights>
          <cc:Agent>
            <dc:title>Public Domain</dc:title>
          </cc:Agent>
        </dc:rights>
        <dc:description>Yankees Retired Number 44</dc:description>
      </cc:Work>
      <cc:License
         rdf:about="http://web.resource.org/cc/PublicDomain">
        <cc:permits
           rdf:resource="http://web.resource.org/cc/Reproduction" />
        <cc:permits
           rdf:resource="http://web.resource.org/cc/Distribution" />
        <cc:permits
           rdf:resource="http://web.resource.org/cc/DerivativeWorks" />
      </cc:License>
    </rdf:RDF>
  </metadata>
  <defs
     id="defs2214" />
  <g
     id="layer4"
     style="display:inline">
    <rect
       width="95"
       height="95"
       x="0.01537863"
       y="-0.00015496838"
       id="rect3239"
       style="fill:#d3d3d3;fill-opacity:1;stroke:none" />
  </g>
  <g
     id="layer3"
     style="display:inline">
    <path
       d="m 94.5,47.5 a 47.25,47.5 0 1 1 -6e-5,-0.07542"
       id="path3235"
       style="fill:#ffffff;fill-opacity:1;stroke:none" />
  </g>
  <g
     id="layer1"
     style="display:inline">
    <path
       d="m 147.25,48.75 a 51,43.701088 0 1 1 -102,0 51,43.701088 0 1 1 102,0 z"
       transform="matrix(0.8537636,0,0,0.9963584,-34.674752,-0.8224755)"
       id="path3210"
       style="fill:#ffffff;fill-opacity:1;stroke:#002649;stroke-width:5.43852234;stroke-miterlimit:4;stroke-opacity:1;stroke-dasharray:none" />
    <path
       d="m 41.00147,88.945398 0.01072,-82.7114561 0.990578,-0.09375 -0.01831,83.2913421 -0.982995,-0.486136 z"
       id="path3222"
       style="fill:#002649;fill-opacity:1;fill-rule:evenodd;stroke:none" />
    <path
       d="m 52.991306,89.179827 0.01072,-82.7114559 0.99058,-0.09375 -0.01831,83.2913419 -0.98299,-0.486136 z"
       id="path3224"
       style="fill:#002649;fill-opacity:1;fill-rule:evenodd;stroke:none;display:inline" />
    <path
       d="M 65.99935,85.699666 66.010073,9.8153407 67.000651,9.729329 66.982345,86.14567 65.99935,85.699666 z"
       id="path3226"
       style="fill:#002649;fill-opacity:1;fill-rule:evenodd;stroke:none;display:inline" />
    <path
       d="m 78.99935,76.366855 0.01072,-58.071704 0.990578,-0.06582 -0.01831,58.478842 -0.982995,-0.341316 z"
       id="path3228"
       style="fill:#002649;fill-opacity:1;fill-rule:evenodd;stroke:none;display:inline" />
    <path
       d="m 27.99935,86.633887 0.01072,-76.442913 0.990578,-0.08665 -0.01831,76.978841 -0.982995,-0.449283 z"
       id="path3230"
       style="fill:#002649;fill-opacity:1;fill-rule:evenodd;stroke:none;display:inline" />
    <path
       d="m 14.99935,77.854091 0.01072,-60.243977 0.990578,-0.06828 -0.01831,60.666341 -0.982995,-0.354079 z"
       id="path3232"
       style="fill:#002649;fill-opacity:1;fill-rule:evenodd;stroke:#ff0000;stroke-width:2;stroke-linecap:butt;stroke-linejoin:miter;stroke-miterlimit:4;stroke-opacity:0;stroke-dasharray:none;display:inline" />
  </g>
  <g
     id="layer2"
     style="display:inline">
    <path
       d="m 34.433273,62.993451 0,-2.992374 -17.938495,0 0.01575,-9.00862 18.977951,-28.994529 8.016412,-1e-6 -0.0315,28.99453 3.953082,0 0.07875,9.008621 -4.03183,0 10e-7,2.976624 3.968832,0.01575 0,8.992871 -16.977785,0.01575 -0.01575,-9.008622 3.984582,0 z"
       id="path8388"
       style="fill:#002649;fill-opacity:1;fill-rule:evenodd;stroke:#ffffff;stroke-width:1.29999995;stroke-linecap:butt;stroke-linejoin:miter;stroke-miterlimit:4;stroke-opacity:1;stroke-dasharray:none" />
    <path
       d="m 27.224167,51.109188 7.25925,-13.48787 0.0014,13.490009 -7.260622,-0.0021 z"
       id="path8390"
       style="fill:#ffffff;fill-opacity:1;fill-rule:evenodd;stroke:#ffffff;stroke-width:1.29999995;stroke-linecap:butt;stroke-linejoin:miter;stroke-miterlimit:4;stroke-opacity:1;stroke-dasharray:none" />
    <path
       d="m 57.974167,51.109188 7.25925,-13.48787 0.0014,13.490009 -7.260622,-0.0021 z"
       id="path7395"
       style="fill:#ffffff;fill-opacity:1;fill-rule:evenodd;stroke:#ffffff;stroke-width:1.29999995;stroke-linecap:butt;stroke-linejoin:miter;stroke-miterlimit:4;stroke-opacity:1;stroke-dasharray:none" />
    <path
       d="m 49.211967,28.616958 7,-6.96875 15,-0.03125 6.96875,7.03125 0,17 -7.03125,7 -11.96875,0 0,10 9,0 0,-6 10,0 0,15 -28.96875,0 0,-23.03125 6.96875,-6.96875 12,0 0,-10 -9,0 0,6 -10,0 0.03125,-9.03125 z"
       id="path3247"
       style="fill:#002649;fill-opacity:1;fill-rule:evenodd;stroke:#ffffff;stroke-width:1.29999995;stroke-linecap:butt;stroke-linejoin:miter;stroke-miterlimit:4;stroke-opacity:1;stroke-dasharray:none;display:inline" />
  </g>
</svg>
