<?xml version="1.0" encoding="utf-8"?>
<!-- Generator: Adobe Illustrator 15.1.0, SVG Export Plug-In . SVG Version: 6.00 Build 0)  -->
<!DOCTYPE svg PUBLIC "-//W3C//DTD SVG 1.1//EN" "http://www.w3.org/Graphics/SVG/1.1/DTD/svg11.dtd">
<svg version="1.1" id="Layer_1" xmlns="http://www.w3.org/2000/svg" xmlns:xlink="http://www.w3.org/1999/xlink" x="0px" y="0px"
	 width="95px" height="95px" viewBox="0 0 95 95" enable-background="new 0 0 95 95" xml:space="preserve">
<path fill="#28459C" d="M47.5,0C21.267,0,0,21.267,0,47.5S21.267,95,47.5,95S95,73.733,95,47.5S73.733,0,47.5,0L47.5,0z"/>
<g>
	<path fill="#FFFFFF" d="M47.5,3C72.037,3,92,22.962,92,47.5C92,72.037,72.037,92,47.5,92C22.962,92,3,72.037,3,47.5
		C3,22.962,22.962,3,47.5,3z"/>
	<path fill="#28459C" d="M47.5,7C69.832,7,88,25.168,88,47.5C88,69.832,69.832,88,47.5,88C25.168,88,7,69.832,7,47.5
		C7,25.168,25.168,7,47.5,7 M47.5,3C22.962,3,3,22.962,3,47.5C3,72.037,22.962,92,47.5,92C72.037,92,92,72.037,92,47.5
		C92,22.962,72.037,3,47.5,3L47.5,3z"/>
	<path fill="#FFFFFF" d="M47.5,6C70.383,6,89,24.617,89,47.5C89,70.383,70.383,89,47.5,89C24.617,89,6,70.383,6,47.5
		C6,24.617,24.617,6,47.5,6 M47.5,3C22.962,3,3,22.962,3,47.5C3,72.037,22.962,92,47.5,92C72.037,92,92,72.037,92,47.5
		C92,22.962,72.037,3,47.5,3L47.5,3z"/>
</g>
<g>
	<path fill="#D71F26" d="M41.426,25.1h-8.792L17.598,48.812v8.888h15.708V67.9h8.064l0.051-10.201h2.759v-7.864h-2.754V25.1z
		 M26.438,49.835l6.867-11.372v11.372H26.438z"/>
	<polygon fill="#D71F26" points="58.357,49.999 66.695,49.999 73.402,43.293 73.402,31.698 66.69,25.1 55.327,25.1 48.35,31.687 
		48.35,37.401 56.674,37.401 56.674,34.982 58.454,33.22 63.64,33.22 65.281,34.94 65.281,40.245 63.643,41.776 55.311,41.776 
		48.35,48.738 48.35,67.9 73.402,67.9 73.402,59.372 56.674,59.372 56.674,51.836 	"/>
</g>
</svg>
